<?xml version="1.0" encoding="utf-8"?>
<!-- Generator: Adobe Illustrator 15.1.0, SVG Export Plug-In . SVG Version: 6.00 Build 0)  -->
<!DOCTYPE svg PUBLIC "-//W3C//DTD SVG 1.0//EN" "http://www.w3.org/TR/2001/REC-SVG-20010904/DTD/svg10.dtd">
<svg version="1.0" id="Layer_1" xmlns="http://www.w3.org/2000/svg" xmlns:xlink="http://www.w3.org/1999/xlink" x="0px" y="0px"
	 width="60px" height="60px" viewBox="0 0 60 60" enable-background="new 0 0 60 60" xml:space="preserve">
<g>
	<path fill="#FFFFFF" d="M18.333,44.143c-0.683,0.683-1.792,0.683-2.475,0l0,0c-0.683-0.684-0.683-1.792,0-2.475l25.81-25.81
		c0.683-0.683,1.791-0.683,2.475,0l0,0c0.683,0.683,0.683,1.792,0,2.475L18.333,44.143z"/>
	<path fill="#FFFFFF" d="M15.858,18.333c-0.684-0.684-0.684-1.791,0-2.475l0,0c0.684-0.684,1.791-0.684,2.475,0l25.81,25.81
		c0.683,0.682,0.684,1.791,0,2.475l0,0c-0.684,0.684-1.793,0.683-2.475,0L15.858,18.333z"/>
</g>
</svg>
