<?xml version="1.0" encoding="utf-8"?>
<!-- Generator: Adobe Illustrator 21.1.0, SVG Export Plug-In . SVG Version: 6.00 Build 0)  -->
<svg version="1.1" id="Layer_1" xmlns="http://www.w3.org/2000/svg" xmlns:xlink="http://www.w3.org/1999/xlink" x="0px" y="0px"
	 viewBox="0 0 290 54" style="enable-background:new 0 0 290 54;" xml:space="preserve">
<style type="text/css">
	.st0{fill:#585553;}
</style>
<g>
	<g>
		<path class="st0" d="M7.1,14.4l-2.6-1.6c-1.6-1-2.8-2-3.5-3S0,7.7,0,6.5c0-1.9,0.7-3.4,2-4.6s3-1.8,5.1-1.8c2,0,3.8,0.6,5.5,1.7
			v3.9C10.9,4.1,9,3.2,7,3.2C5.9,3.2,5,3.5,4.2,4c-0.7,0.5-1,1.2-1,2c0,0.7,0.3,1.4,0.8,2s1.4,1.3,2.6,2l2.6,1.6
			c2.9,1.7,4.4,4,4.4,6.7c0,1.9-0.6,3.5-1.9,4.7s-3,1.8-5,1.8c-2.4,0-4.5-0.7-6.5-2.2v-4.4c1.9,2.4,4,3.5,6.4,3.5
			c1.1,0,2-0.3,2.7-0.9c0.7-0.6,1.1-1.4,1.1-2.2C10.3,17.1,9.3,15.7,7.1,14.4z"/>
		<path class="st0" d="M22.3,0.4h20v3.1H34v21h-3.5v-21h-8.2V0.4z"/>
		<path class="st0" d="M56.8,0.3h2.4L70,24.4h-3.5l-3.2-7.1H53l-3,7.1h-3.5L56.8,0.3z M61.8,14.3L58,5.6l-3.6,8.7
			C54.4,14.3,61.8,14.3,61.8,14.3z"/>
		<path class="st0" d="M98.7,0.4h3.3v24h-3L82.9,6v18.5h-3.2v-24h2.8l16.2,18.6L98.7,0.4L98.7,0.4z"/>
		<path class="st0" d="M136.9,14.4l-2.6-1.6c-1.6-1-2.8-2-3.5-3s-1-2.1-1-3.3c0-1.9,0.7-3.4,2-4.6s3-1.8,5.1-1.8
			c2,0,3.8,0.6,5.5,1.7v3.9c-1.7-1.7-3.6-2.5-5.6-2.5c-1.1,0-2,0.3-2.8,0.8c-0.7,0.5-1.1,1.2-1.1,2c0,0.7,0.3,1.4,0.8,2
			s1.4,1.3,2.6,2l2.6,1.6c2.9,1.7,4.4,4,4.4,6.7c0,1.9-0.6,3.5-1.9,4.7c-1.3,1.2-3,1.8-5,1.8c-2.4,0-4.5-0.7-6.5-2.2v-4.4
			c1.9,2.4,4,3.5,6.4,3.5c1.1,0,2-0.3,2.7-0.9s1.1-1.4,1.1-2.2C140,17.1,139,15.7,136.9,14.4z"/>
		<path class="st0" d="M154.1,0.4h13.6v3.1h-10.2v7.3h9.8v3.1h-9.8v7.5H168v3.1h-13.9V0.4z"/>
		<path class="st0" d="M186.4,0.3h2.4l10.8,24.1H196l-3.2-7.1h-10.2l-3,7.1h-3.5L186.4,0.3z M191.4,14.3l-3.9-8.7l-3.6,8.7H191.4z"
			/>
		<path class="st0" d="M203.6,0.4h20v3.1h-8.4v21h-3.5v-21h-8.2L203.6,0.4L203.6,0.4z"/>
		<path class="st0" d="M243.4,0.1c3.7,0,6.8,1.2,9.3,3.5s3.7,5.3,3.7,8.8s-1.2,6.5-3.7,8.8s-5.6,3.5-9.4,3.5c-3.6,0-6.6-1.2-9-3.5
			s-3.6-5.2-3.6-8.7c0-3.6,1.2-6.5,3.6-8.9C236.7,1.3,239.7,0.1,243.4,0.1z M243.6,3.4c-2.7,0-5,0.9-6.8,2.6s-2.7,3.9-2.7,6.6
			c0,2.6,0.9,4.7,2.7,6.5c1.8,1.7,4,2.6,6.7,2.6s4.9-0.9,6.7-2.6c1.8-1.8,2.7-3.9,2.7-6.5c0-2.5-0.9-4.7-2.7-6.4
			C248.4,4.2,246.2,3.4,243.6,3.4z"/>
		<path class="st0" d="M286.7,0.4h3.3v24h-3L271,6v18.5h-3.2v-24h2.8l16.2,18.6L286.7,0.4L286.7,0.4z"/>
		<g>
			<path class="st0" d="M47,53.8v-12h3.8c1.1,0,2.1,0.3,2.7,0.9c0.7,0.6,1,1.4,1,2.5c0,0.7-0.2,1.3-0.5,1.9
				c-0.3,0.5-0.8,0.9-1.4,1.2c-0.6,0.2-1.5,0.4-2.6,0.4h-1.3v5.2H47V53.8z M50.5,43.3h-1.8V47h1.9c0.7,0,1.2-0.2,1.6-0.5
				c0.4-0.3,0.6-0.8,0.6-1.4C52.8,43.9,52,43.3,50.5,43.3z"/>
			<path class="st0" d="M71.6,41.8h1.7v12h-1.7v-5.2h-6.7v5.2h-1.7v-12h1.7V47h6.7V41.8z"/>
			<path class="st0" d="M88.8,41.6c1.9,0,3.4,0.6,4.6,1.8s1.8,2.6,1.8,4.4c0,1.8-0.6,3.2-1.9,4.4c-1.2,1.2-2.8,1.7-4.7,1.7
				c-1.8,0-3.3-0.6-4.5-1.7c-1.2-1.2-1.8-2.6-1.8-4.4c0-1.8,0.6-3.3,1.8-4.4C85.5,42.2,87,41.6,88.8,41.6z M88.9,43.2
				c-1.4,0-2.5,0.4-3.4,1.3s-1.3,2-1.3,3.3s0.4,2.4,1.3,3.2c0.9,0.9,2,1.3,3.3,1.3s2.5-0.4,3.4-1.3c0.9-0.9,1.3-2,1.3-3.3
				s-0.4-2.3-1.3-3.2C91.3,43.7,90.2,43.2,88.9,43.2z"/>
			<path class="st0" d="M102.3,41.7h10v1.5h-4.2v10.5h-1.7V43.3h-4.1C102.3,43.3,102.3,41.7,102.3,41.7z"/>
			<path class="st0" d="M125.7,41.6c1.9,0,3.4,0.6,4.6,1.8c1.2,1.2,1.8,2.6,1.8,4.4c0,1.8-0.6,3.2-1.9,4.4c-1.2,1.2-2.8,1.7-4.7,1.7
				c-1.8,0-3.3-0.6-4.5-1.7c-1.2-1.2-1.8-2.6-1.8-4.4c0-1.8,0.6-3.3,1.8-4.4C122.3,42.2,123.9,41.6,125.7,41.6z M125.8,43.2
				c-1.4,0-2.5,0.4-3.4,1.3c-0.9,0.9-1.3,2-1.3,3.3s0.4,2.4,1.3,3.2c0.9,0.9,2,1.3,3.3,1.3s2.5-0.4,3.4-1.3c0.9-0.9,1.3-2,1.3-3.3
				s-0.4-2.3-1.3-3.2C128.2,43.7,127.1,43.2,125.8,43.2z"/>
			<path class="st0" d="M147.8,47.9h4V53c-1.5,0.6-2.9,1-4.4,1c-2,0-3.6-0.6-4.8-1.7c-1.2-1.2-1.8-2.6-1.8-4.3
				c0-1.8,0.6-3.3,1.8-4.5s2.8-1.8,4.6-1.8c0.7,0,1.3,0.1,1.9,0.2c0.6,0.1,1.4,0.4,2.3,0.8v1.8c-1.4-0.8-2.9-1.2-4.3-1.2
				c-1.3,0-2.4,0.4-3.3,1.3c-0.9,0.9-1.3,2-1.3,3.3c0,1.4,0.4,2.5,1.3,3.3c0.9,0.9,2.1,1.3,3.5,1.3c0.7,0,1.5-0.2,2.5-0.5l0.2-0.1
				v-2.5h-2.3L147.8,47.9L147.8,47.9z"/>
			<path class="st0" d="M161.5,53.8v-12h3c1.2,0,2.2,0.3,2.9,0.9c0.7,0.6,1.1,1.4,1.1,2.4c0,0.7-0.2,1.3-0.5,1.8
				c-0.4,0.5-0.9,0.9-1.5,1.1c0.4,0.3,0.8,0.6,1.1,1c0.4,0.4,0.9,1.2,1.5,2.3c0.4,0.7,0.8,1.2,1,1.5l0.6,0.9h-2l-0.5-0.8l-0.1-0.1
				l-0.3-0.5l-0.5-0.9l-0.6-0.9c-0.4-0.5-0.7-0.9-1-1.2s-0.6-0.5-0.8-0.6s-0.6-0.2-1.2-0.2h-0.4v5.2L161.5,53.8L161.5,53.8z
				 M163.7,43.2h-0.5V47h0.7c0.9,0,1.5-0.1,1.8-0.2c0.3-0.1,0.6-0.4,0.8-0.7s0.3-0.6,0.3-1s-0.1-0.7-0.3-1s-0.5-0.5-0.8-0.6
				C165.1,43.3,164.5,43.2,163.7,43.2z"/>
			<path class="st0" d="M182.9,41.7h1.2l5.4,12.1h-1.8l-1.6-3.6H181l-1.5,3.6h-1.8L182.9,41.7z M185.4,48.7l-1.9-4.3l-1.8,4.3H185.4
				z"/>
			<path class="st0" d="M197.7,53.8v-12h3.8c1.1,0,2.1,0.3,2.7,0.9c0.7,0.6,1,1.4,1,2.5c0,0.7-0.2,1.3-0.5,1.9
				c-0.3,0.5-0.8,0.9-1.4,1.2c-0.6,0.2-1.5,0.4-2.6,0.4h-1.3v5.2h-1.7V53.8z M201.3,43.3h-1.8V47h1.9c0.7,0,1.2-0.2,1.6-0.5
				c0.4-0.3,0.6-0.8,0.6-1.4C203.5,43.9,202.8,43.3,201.3,43.3z"/>
			<path class="st0" d="M222.3,41.8h1.7v12h-1.7v-5.2h-6.7v5.2h-1.7v-12h1.7V47h6.7V41.8z"/>
			<path class="st0" d="M240.9,41.8h2.1l-4.4,5.7v6.3h-1.8v-6.3l-4.4-5.7h2.1l3.2,4.1L240.9,41.8z"/>
		</g>
	</g>
</g>
</svg>
